# xmcd
#
# Track frame offsets: 
#        150
#        20534
#        44285
#        56963
#        74600
#        90388
#        102843
#        119512
#        141005
#        154361
#        168463
#        184767
#
# Disc length: 2619 seconds
#
# Revision: 9
# Processed by: cddbd v1.5.2PL0 Copyright (c) Steve Scherf et al.
# Submitted via: ExactAudioCopyFreeDBPlugin 1.0
#
DISCID=aa0a390c
DTITLE=Johnny Winter - The Perfect Blues Collection [disc 15] Johnny W
DTITLE=inter^ Johnny Winter
DYEAR=2011
DGENRE=Blues
TTITLE0=I'm Yours and I'm Hers
TTITLE1=Be Careful with a Fool
TTITLE2=Dallas
TTITLE3=Mean Mistreater
TTITLE4=Leland Mississippi Blues
TTITLE5=Good Morning Little School Girl
TTITLE6=When You Got a Good Friend
TTITLE7=I'll Drown in My Own Tears
TTITLE8=Back Door Friend
TTITLE9=Country Girl
TTITLE10=Dallas
TTITLE11=Two Steps from the Blues
EXTD=2004 remaster
EXTT0=
EXTT1=
EXTT2=
EXTT3=
EXTT4=
EXTT5=
EXTT6=
EXTT7=
EXTT8=
EXTT9=
EXTT10=
EXTT11=
PLAYORDER=
